<?xml version="1.0"?>
<svg xmlns="http://www.w3.org/2000/svg" xmlns:xlink="http://www.w3.org/1999/xlink" xmlns:svgjs="http://svgjs.com/svgjs" version="1.1" width="512" height="512" x="0" y="0" viewBox="0 0 512 512" style="enable-background:new 0 0 512 512" xml:space="preserve" class=""><g><path xmlns="http://www.w3.org/2000/svg" d="m459.179688 255.476562c-.171876-2.59375-.925782-5.289062-2.144532-7.621093-5.03125-9.609375-14.066406-10.539063-24.078125-10.878907-34.191406-82.777343-61.402343-142.082031-58.953125-153.980468 7.179688-.996094 13.417969-4.8125 17.585938-10.226563h3.40625c17.769531 0 32.214844-14.449219 32.214844-32.21875 0-17.757812-14.445313-32.214843-32.214844-32.214843h-3.242188c-7.070312-8.828126-19.207031-8.3125005-19.3125-8.335938-25.082031.15625-45.828125 11.914062-51.816406 36.523438v.003906h-27.8125c-4.171875 0-7.550781 3.378906-7.550781 7.550781 0 4.167969 3.378906 7.550781 7.550781 7.550781h26.089844c-.019532 9.542969 1.722656 21.050782 6.261718 34.839844 20.316407 61.609375 17.894532 210.511719-17.738281 210.664062l-23.164062.09375h-.0625c-6.894531 0-13.195313-4.308593-15.695313-10.742187-36.914062-95.097656-35.03125-90.347656-35.296875-90.851563v-7.378906c0-11.828125-9.625-21.453125-21.453125-21.453125h-90.925781v-103.453125c0-6.988281-5.6875-12.675781-12.675781-12.675781h-10.90625c-4.171875 0-7.550782 3.378906-7.550782 7.550781 0 4.167969 3.378907 7.550782 7.550782 7.550782h8.480468v101.023437c-9.1875 0-79.695312 0-90.625 0v-101.023437h51.941407c4.167969 0 7.550781-3.382813 7.550781-7.550782 0-4.171875-3.382812-7.550781-7.550781-7.550781h-54.367188c-6.988281 0-12.675781 5.6875-12.675781 12.675781v105.875c0 6.988282 5.6875 12.675782 12.675781 12.675782h26.203125l27.15625 33.128906c-12.445312 17.859375-22.871094 39-31.582031 63.925781-3.289063 9.316406-6.8125 21.265625-7.046875 22.199219-5.804688 18.871094 7.359375 37.121094 26.558594 37.121094h14.277344c3.058593 42.605468 38.699218 76.332031 82.070312 76.332031 43.378906 0 79.019531-33.726563 82.082031-76.332031h115.230469c3.0625 42.605468 38.703125 76.332031 82.074219 76.332031 45.382812 0 82.300781-36.917969 82.300781-82.292969 0-35.003906-21.953125-64.960938-52.820312-76.835938zm-60.417969-231.617187c7.640625 1.714844 13.347656 8.550781 13.347656 16.695313 0 8.746093-6.585937 15.964843-15.050781 16.984374 1.707031-29.894531 2.066406-30.144531 1.703125-33.679687zm-302.5625 164.394531c0-3.503906 2.847656-6.351562 6.351562-6.351562h109.203125c3.503906 0 6.351563 2.847656 6.351563 6.351562v3.210938h-121.90625zm-37.796875-6.355468h23.652344v.003906c-1.457032 4.679687-.78125 7.738281-.957032 14.175781-1.933594 2.121094-3.824218 4.316406-5.6875 6.5625zm91.910156 217.605468c-35.035156 0-63.898438-26.960937-66.917969-61.230468h22.730469c2.921875 21.773437 21.625 38.617187 44.1875 38.617187s41.265625-16.84375 44.1875-38.617187h22.742188c-3.019532 34.269531-31.882813 61.230468-66.929688 61.230468zm-28.875-61.230468h57.75c-2.761719 13.398437-14.660156 23.515624-28.875 23.515624s-26.113281-10.117187-28.875-23.515624zm213.21875-15.101563h-99.785156c6.5-9.445313 6.046875-19.835937 6.070312-19.976563 0-26.074218-10.710937-49.601562-30.164062-66.222656-18.238282-15.59375-43.179688-24.777344-71.941406-23.929687-4.167969.160156-7.417969 3.652343-7.269532 7.820312.152344 4.167969 3.65625 7.421875 7.824219 7.269531 1.175781-.039062 2.375-.0625 3.5625-.0625 43.4375 0 82.886719 29 82.886719 75.125-.03125.113282.738281 10.929688-9.402344 17.105469-7.125 4.355469-13.125 2.367188-22.480469 2.871094-82.53125.007813-140.296875.035156-141.230469-.0625-2.507812-.199219-5.597656-1.417969-7.832031-3.652344-5.949219-5.953125-3.628906-11.90625-1.550781-18.96875 6.882812-23.300781 22.296875-34.785156 28.492188-42.414062 11.507812-11.578125 24.96875-19.984375 40.027343-24.976563 3.957031-1.3125 6.101563-5.589844 4.792969-9.546875s-5.578125-6.101562-9.542969-4.792969c-14.699219 4.882813-28.058593 12.566407-39.828125 22.886719 7.15625-12.953125 15.324219-24.714843 24.675782-35.078125h129.339843l33.121094 85.375c8.148437 20.980469 29.800781 20.355469 29.902344 20.386719l23.164062-.089844c58.460938-.179687 50.675781-173.890625 32.023438-230.5-3.714844-11.273437-5.554688-21.382812-5.546875-30.109375h29.320312c4.171875 0 7.550782-3.382812 7.550782-7.550781 0-4.171875-3.378907-7.550781-7.550782-7.550781h-26.953125c1.007813-2.859375 2.335938-5.457032 3.996094-7.761719 8.023437-11.175781 21.949219-13.601563 32.207031-13.664063.105469.023438 4.570313-.253906 8.125 3.484376 2.195313 2.316406 3.300782 5.347656 3.109375 8.539062l-1.832031 30.332031c-.339844 5.453125-4.65625 9.875-10.027344 10.582031-6.191406.855469-9.34375 4.277344-10.894531 7.003907-8.695313 15.25 8.640625 48.5 55.925781 162.714843-43.75 5.648438-78.582031 40.613282-82.285156 85.414063zm106.066406-70.394531c2.738282.382812 4.199219 3.425781 2.957032 5.859375.234374-.460938-3.128907 6.183593-17.292969 34.140625-5.503907 8.609375-9.75 30.394531-33.046875 30.394531h-43.53125c4.398437-45.292969 45.640625-76.589844 90.914062-70.394531zm-11.023437 146.726562c-35.035157 0-63.902344-26.960937-66.921875-61.230468h22.742187c2.921875 21.773437 21.617188 38.617187 44.179688 38.617187 23.316406 0 42.847656-18.191406 44.476562-41.417969.292969-4.167968-2.839843-7.773437-6.996093-8.0625-4.160157-.292968-7.773438 2.835938-8.066407 7.003906-1.074219 15.355469-14.003906 27.375-29.414062 27.375-14.4375 0-26.480469-10.429687-28.984375-24.140624 27.917968-4.683594 34.308594-30.335938 36.957031-33.726563 5.222656 1.46875 9.996094 4.367187 13.730469 8.414063 2.820312 3.074218 7.601562 3.261718 10.664062.445312 3.070313-2.828125 3.269532-7.601562.441406-10.671875-4.964843-5.386719-11.144531-9.414063-17.929687-11.820313l10.28125-20.285156c24.625 9.964844 42.039063 34.140625 42.039063 62.308594 0 37.046875-30.140626 67.191406-67.199219 67.191406zm0 0" fill="#cf841b" data-original="#000000" style="" class=""/><path xmlns="http://www.w3.org/2000/svg" d="m94.589844 256.773438c-4.179688 0-7.550782 3.382812-7.550782 7.550781 0 4.148437 3.332032 7.511719 7.476563 7.550781h26.429687 59.398438c4.167969 0 7.550781-3.382812 7.550781-7.550781s-3.382812-7.550781-7.550781-7.550781zm0 0" fill="#cf841b" data-original="#000000" style="" class=""/><path xmlns="http://www.w3.org/2000/svg" d="m180.34375 287.722656c-24.714844 0-61.140625 0-85.753906 0-7.59375 0-10.359375 9.925782-4.050782 13.914063v.007812c3.222657 2.054688 4.664063.808594 26.347657 1.179688 66.722656-.207031 63.761719.507812 66.335937-.574219 7.625-3.140625 5.335938-14.527344-2.878906-14.527344zm0 0" fill="#cf841b" data-original="#000000" style="" class=""/></g></svg>
