<svg xmlns="http://www.w3.org/2000/svg" viewBox="0 0 491.19 184.48"><defs><style>.cls-1{fill:#df9678;}.cls-2{fill:#df9677;}.cls-3{fill:#f9d889;}.cls-4{fill:#fff;}.cls-5{fill:#c0c8d9;}.cls-6{fill:#d9deec;}.cls-7{fill:#2d1c10;}.cls-8{fill:#311e14;}.cls-9{fill:none;stroke:#ce8c6f;stroke-miterlimit:10;stroke-width:0.36px;}.cls-10{fill:#9a3334;}.cls-11{fill:#f8b470;}.cls-12{font-size:72px;fill:#933;font-family:PinyonScript, Pinyon Script;}</style></defs><g id="Camada_3" data-name="Camada 3"><path class="cls-1" d="M117.3,274a32.08,32.08,0,0,1,10.36,5.45,15,15,0,0,1,3.72,4,7.38,7.38,0,0,1,1.05,5.24" transform="translate(-6.89 -112.66)"/><path class="cls-2" d="M116.73,276.11c5.2,1.69,14.42,5.88,13.54,12.57-.36,2.75,4,2.73,4.33,0,1.16-8.87-9.75-14.47-16.72-16.74-2.65-.87-3.79,3.31-1.15,4.17Z" transform="translate(-6.89 -112.66)"/><path class="cls-1" d="M100.71,282.19l9.32,5.22a30,30,0,0,0,8.07,3.52,30,30,0,0,0,8.41.22,8.27,8.27,0,0,0,3.12-.62,2.5,2.5,0,0,0,.72-4.36,11,11,0,0,0-1.77-1.23,26.31,26.31,0,0,1-6.52-5.7,17.12,17.12,0,0,0-3.29-3.55,4.15,4.15,0,0,0-4.56-.38c-1.17.81-1.59,2.32-2.35,3.52a6.66,6.66,0,0,1-6.37,3,3.94,3.94,0,0,0-1.32-.08,1,1,0,0,0-.83.91c0,.62.84.85,1.47.9a20.42,20.42,0,0,0,7.48-.39,8.46,8.46,0,0,0,5.61-4.65" transform="translate(-6.89 -112.66)"/><path class="cls-2" d="M99.62,284.06c5.41,3,11,7.08,17,8.72,4,1.09,11.46,1.85,14.93-1a4.68,4.68,0,0,0,.28-7.14c-1.79-1.88-4.44-2.95-6.33-4.79s-3.27-4.37-5.47-5.86a6.09,6.09,0,0,0-8.53,1c-1.62,1.84-1.9,3.59-4.47,4.31-1.12.31-2.48-.09-3.49.32a3.32,3.32,0,0,0-2.33,2.41c-.67,3.94,4.91,3.89,7.32,3.79,4.69-.18,9-2,11.19-6.26,1.27-2.47-2.46-4.66-3.74-2.18a6.89,6.89,0,0,1-4.31,3.65c-1.11.38-4.18-.16-5,.45-4.59,3.34,2.2,2.19,3.49,1.55,1.94-.95,2.41-2.55,3.89-3.76,4.21-3.45,5.84,1.08,8.42,3.61,1.16,1.14,4.26,2.61,5,3.91l.92.57a2.76,2.76,0,0,1-2.75,1.67,15.25,15.25,0,0,1-4.22.11c-7-.37-13.67-5.49-19.64-8.83-2.43-1.36-4.61,2.37-2.18,3.73Z" transform="translate(-6.89 -112.66)"/><path class="cls-1" d="M104.24,286.19l8.91,5.12A14.82,14.82,0,0,0,116.8,293a4.88,4.88,0,0,0,3.89-.49" transform="translate(-6.89 -112.66)"/><path class="cls-2" d="M103.15,288.05c3.53,2,7,4.31,10.69,6.09a8.55,8.55,0,0,0,7.94.21c2.5-1.22.31-5-2.19-3.73s-5.52-1.28-7.57-2.46l-6.69-3.84c-2.41-1.39-4.6,2.35-2.18,3.73Z" transform="translate(-6.89 -112.66)"/><path class="cls-1" d="M73.68,177.15c2.78,0,2.78-4.32,0-4.32s-2.79,4.32,0,4.32Z" transform="translate(-6.89 -112.66)"/><path class="cls-3" d="M111,243.42l-1.1-.45c-1.68-.71-3.37-1.48-5-2.22l-.24-.11A93.28,93.28,0,0,0,93,236,48.29,48.29,0,0,0,79.21,234a63.6,63.6,0,0,0-12.09,1.21,61.81,61.81,0,0,0-30.19,15.22l-1.81,1.69,2.16,1.2a15.34,15.34,0,0,0,7.44,1.91,14.73,14.73,0,0,0,6.21-1.35c.72-.33,1.41-.72,2.08-1.1a11.9,11.9,0,0,1,5.42-2h.11c2.11,0,4.07,1.1,5.8,2.07a15.33,15.33,0,0,0,4.77,2,8.86,8.86,0,0,0,1.38.11c2.34,0,4.65-1,6.89-1.92s4.58-1.94,7-1.94a7,7,0,0,1,.79,0,15.87,15.87,0,0,1,5.17,1.7l.15.07c.67.31,1.31.6,2,.86a22.37,22.37,0,0,0,8.13,1.42,30.87,30.87,0,0,0,6-.61,66.09,66.09,0,0,0,11.37-3.6l2.1-.83-1.28-1.86c-1.71-2.5-4.91-3.81-7.74-5Z" transform="translate(-6.89 -112.66)"/><path class="cls-4" d="M92.19,124a5,5,0,0,0-1.48-4.15,12.08,12.08,0,0,0-3.8-2.47,26.2,26.2,0,0,0-11.08-2.88,17.51,17.51,0,0,0-2.53.19,17,17,0,0,0-2.94.76,18.29,18.29,0,0,0-2.82,1.3A20,20,0,0,0,64,119.34a27.17,27.17,0,0,0-6.09,8.59,4.47,4.47,0,0,0-.36,1.11l-.16.86.59.66a17.92,17.92,0,0,0-5.63-.94,13.31,13.31,0,0,0-6.81,1.74c-3.52,2.11-6,7.09-4,11.14,1,2.09,3.11,3.76,6.19,5a23.28,23.28,0,0,0,8.56,1.6,23.91,23.91,0,0,0,14.62-4.91,16.16,16.16,0,0,0,12.65,6.35h0a16.23,16.23,0,0,0,12.63-6.24,10,10,0,0,0,7,2.75,10.35,10.35,0,0,0,5.61-1.6,11.89,11.89,0,0,0,4.92-12,13.94,13.94,0,0,0-13.77-11A24,24,0,0,0,92.19,124Zm0,0" transform="translate(-6.89 -112.66)"/><path class="cls-4" d="M104.69,240.65c1.61.74,3.44,1.57,5.23,2.32l1.1.46c3,1.22,6.69,2.73,8.21,5.74l.22.69.71.33L109,273l1.94.66a1.94,1.94,0,0,1,.3.13l.88.43,3.57-2.09.38-.21.23-.36.24-.19s.2-.33.22-.35l.14-.19,3.11,1a22.48,22.48,0,0,1,10.43,7,21.64,21.64,0,0,1,4.92,12.95l.1,2.14,2.09-.46a10.56,10.56,0,0,0,7.38-6.73c1.29-3.59.88-8.05-1.13-12.26-1.83-3.84-4.7-7.11-7.48-10.12-.3-.33-.61-.67-.92-1l0,0a58.91,58.91,0,0,1-7.08-8.72,58,58,0,0,1-5-11.48l-.07-.2c-.43-1.23-.87-2.5-1.34-3.73-1.7-4.56-4.28-10.23-9.08-13.75a34.27,34.27,0,0,0-7.77-3.9l-1.23-.49c-2.87-1.17-6.14-2.64-8.52-5.14l-.2-.23-2.47-3L92,216.49a28.6,28.6,0,0,1-2.52,6.76l-.39.83c-1.34,2.88-2.54,6-2.27,9.14l.12,1.37,1.35.24A45.39,45.39,0,0,1,93,236a93.87,93.87,0,0,1,11.66,4.67Zm19.24,26.77a9.08,9.08,0,0,1,4.94,1.47,9.17,9.17,0,0,0-5-1.47Zm-4.23,1.08-.38.21a8.78,8.78,0,0,1,1.34-.66,8.39,8.39,0,0,0-1,.45Zm1-.45.46-.17-.46.17Zm0,0" transform="translate(-6.89 -112.66)"/><path class="cls-4" d="M16.83,293.43l2.09.46.09-2.14a21.65,21.65,0,0,1,4.93-12.95,22.48,22.48,0,0,1,10.43-7l3.1-1,.17.22.19.73.66.37.72.41.09.05c1.08.63,1.94,1.12,2.4,1.37l.81,1.32,1.43-.6a5,5,0,0,1,.65-.22l2.18-.58L35.27,252l.72-.25.31-.71a61.61,61.61,0,0,1,30.82-15.8,64.28,64.28,0,0,1,10.71-1.19l1.6,0,.15-1.59a33.07,33.07,0,0,1,3.61-11.35l1.75-3.4-3.74.81a26,26,0,0,1-5.54.61c-.51,0-1,0-1.48,0a26,26,0,0,1-12.33-4l-1.36-.87-1,1.26a5.11,5.11,0,0,1-.4.47c-2.4,2.52-5.66,4-8.53,5.16l-1.23.49a34.34,34.34,0,0,0-7.78,3.9c-4.8,3.52-7.37,9.19-9.07,13.74-.47,1.24-.91,2.51-1.34,3.74l-.07.19a57.8,57.8,0,0,1-5,11.49A58.35,58.35,0,0,1,19,263.3l0,0-.92,1c-2.78,3-5.65,6.28-7.49,10.12-2,4.21-2.41,8.67-1.12,12.26a10.56,10.56,0,0,0,7.38,6.73ZM34.68,268.5a9.27,9.27,0,0,0-1-.45,8.76,8.76,0,0,1,1.34.66Zm-1-.46-.46-.17.46.17Zm-3.25-.62h0a9.23,9.23,0,0,0-5.64,1.95,9.08,9.08,0,0,1,5.61-1.95Zm0,0" transform="translate(-6.89 -112.66)"/><path class="cls-5" d="M111.55,274a4.19,4.19,0,0,0-2.52-.58c-.41,0-.8,0-1.17,0h-.08l-.7,0-4.69.06-3.4,0-52,.66c-1.57,0-3.73.22-4.46,1.78-.66,1.4.31,3.1,1.63,3.83a8.44,8.44,0,0,0,4,.72l57.53-.34c1.94,0,4.6,0,6.1-1.9a3.73,3.73,0,0,0,.74-2.7,2.31,2.31,0,0,0-1-1.64Zm0,0" transform="translate(-6.89 -112.66)"/><path class="cls-3" d="M111,243.42" transform="translate(-6.89 -112.66)"/><path class="cls-6" d="M102.36,287.51a23.63,23.63,0,0,1-3.77-5.32l.16-1.95L56,280.49l-1.74,0,0,1.74a12.24,12.24,0,0,1-3.52,5.93l-3.29,3.17,57.7-.88Zm0,0" transform="translate(-6.89 -112.66)"/><path class="cls-6" d="M55,161.81a88.12,88.12,0,0,0,38,.64c2.23-.46,4.65-1.19,5.76-3.14a8.32,8.32,0,0,0,.8-3.74l.41-7.41.27-1.46-1.3-.58a9.49,9.49,0,0,1-1.49-.82l-1.26-.86-1.06,1.1a16.28,16.28,0,0,1-11.54,5h-.06a16.28,16.28,0,0,1-11.63-5.14l-1-1.12-1.27.85a24.4,24.4,0,0,1-13.34,4c-.74,0-1.49,0-2.22-.1l-2.31-.22,2.07,12.78Zm0,0" transform="translate(-6.89 -112.66)"/><path class="cls-7" d="M109.75,187A15.55,15.55,0,0,0,112,170.51c-1.09-2.27-5.21-9.65-12.55-9.65H99l-.93-.48-.87.57a10.57,10.57,0,0,1-3.31,1.29l-1.47.36.1,1.51A18.82,18.82,0,0,0,99,177l.1.08.46.38a7.61,7.61,0,0,1,2.47,2.83,6.71,6.71,0,0,1,.06,3.84,33.88,33.88,0,0,1-8.77,17.19c-.52.54-1.07,1-1.68,1.58L90.36,204l.94,1.33c.25.89.49,1.81.69,2.62.75,3,1.53,6,3.32,7.92,2.39,2.52,5.66,4,8.53,5.16l1.22.49.43.17.72.29,1.05.41.83-.73c5.07-2.08,7.93-4.49,10.58-8.88a19.13,19.13,0,0,0,2.1-15.3,15.57,15.57,0,0,0-11-10.44Zm0,0" transform="translate(-6.89 -112.66)"/><path class="cls-8" d="M59.56,204.2a24.32,24.32,0,0,1-8.64-14.88A9.61,9.61,0,0,1,51.3,184a11.86,11.86,0,0,1,2.48-3.24l.59-.61a27.54,27.54,0,0,0,7.2-15.28l.21-1.71-1.69-.29c-2.09-.37-4.17-.82-6.19-1.33l-.61-.16-.58.27c-4.24,2-8.73,6.53-11.18,11.41A22.37,22.37,0,0,0,39.77,188l0,.23a4.78,4.78,0,0,1,0,3.27,4.68,4.68,0,0,1-1.71,1.62l-.23.16a16.6,16.6,0,0,0,6.46,30l.57.1.52-.24c1.24-.58,2.53-1.1,3.84-1.63l1.23-.49c2.87-1.18,6.14-2.64,8.53-5.16,1.69-1.78,2.18-3.92,2.75-6.38v-.06c.14-.6.28-1.23.45-1.86l.32-1.26-1.09-.7c-.71-.47-1.35-.93-1.95-1.41Zm0,0" transform="translate(-6.89 -112.66)"/><path class="cls-9" d="M130.44,278.8A22.25,22.25,0,0,0,118,271.28l-.85-.16-.64.5-3.2,1.88-1.13.69.28,1.28,0,.13a3.7,3.7,0,0,1-.74,2.7c-1.5,1.87-4.16,1.88-6.1,1.9l-8.2,0L99,282.91a24.87,24.87,0,0,0,15.13,11.67,24.09,24.09,0,0,0,6,.76,24.84,24.84,0,0,0,13.56-4l1.69-.34-.27-1.71a21.71,21.71,0,0,0-4.67-10.46Zm0,0" transform="translate(-6.89 -112.66)"/><path class="cls-1" d="M102,180.33a7.6,7.6,0,0,0-2.49-2.84l-.56-.46a18.92,18.92,0,0,1-6.39-12.48l-.18-2-1.93.34a87.14,87.14,0,0,1-26.85.49l-1.79-.24-.24,1.8a27.44,27.44,0,0,1-7.19,15.19l-.59.62A11.68,11.68,0,0,0,51.3,184a9.34,9.34,0,0,0-.38,5.31,24,24,0,0,0,23.75,20.19c.43,0,.85,0,1.27,0a26.86,26.86,0,0,0,17.33-8.11,34,34,0,0,0,8.77-17.2,7,7,0,0,0-.06-3.84Zm0,0" transform="translate(-6.89 -112.66)"/><path class="cls-1" d="M48.11,280.54a8.18,8.18,0,0,1-4-.73c-1.23-.67-2.23-2.25-1.69-3.65l.56-1.47-1.38-.76c-.5-.27-1.32-.75-2.19-1.25l-.28-.16-1.75-1-.6-.34-.67.15a22.29,22.29,0,0,0-12.19,7.47,21.7,21.7,0,0,0-4.82,11.54L19,291.71l1.29.5a33.36,33.36,0,0,0,23.32.19,21.26,21.26,0,0,0,6.65-3.75,12.57,12.57,0,0,0,3.85-5.82l.67-2.32-6.15,0Zm0,0" transform="translate(-6.89 -112.66)"/><path class="cls-10" d="M93.15,212c-.47-1.31-.84-2.78-1.16-4.07l0-.18c-.14-.55-.28-1.11-.43-1.66l-.66-2.4-2.08,1.38a25.82,25.82,0,0,1-12.83,4.4c-.45,0-.87,0-1.27,0a24.36,24.36,0,0,1-10.12-2.24l-2-.91-.51,2.13c-.08.34-.16.68-.23,1a21.79,21.79,0,0,1-1.25,4.14l-.66,1.42,1.32.85a27.34,27.34,0,0,0,12.89,4.24c.51,0,1,0,1.54,0a27.1,27.1,0,0,0,7.34-1,35.55,35.55,0,0,0-4.47,12.89l-.22,2,2,0a52.52,52.52,0,0,1,5.5.4l2.1.27-.07-2.11c-.08-2.75,1-5.5,2.21-8.06l.4-.87a27.46,27.46,0,0,0,2.66-7.39l.65-4.27-.46.34Zm0,0" transform="translate(-6.89 -112.66)"/><path class="cls-11" d="M106.56,254.69a32.16,32.16,0,0,1-6,.61h-.36l-1.25,0-1.12-.12a21,21,0,0,1-5.39-1.29c-.7-.27-1.38-.58-2.15-.94a16.29,16.29,0,0,0-5.13-1.69,4.07,4.07,0,0,0-.5,0l-.72,0V251l-.73.19-.55,0v.16l-1,.27a31.48,31.48,0,0,0-4.24,1.57c-2.34,1-4.55,1.91-6.87,1.91h-.16l-1.07,0-1.07-.31a19.21,19.21,0,0,1-3.87-1.82c-1.82-1-3.71-2.08-5.79-2.08h-.11a12,12,0,0,0-5.42,2l-1.44.79h0l-.79.36a14.79,14.79,0,0,1-6.07,1.29,15.5,15.5,0,0,1-4.64-.71l-4.16-1.3,10.17,19.33.2,1.63,13.83-.17h0l11.82-.14h0l11.44-.15h0l11.85-.15h0l6.2-.08c1.67,0,3.65,0,5.65-.07l.73,0,1.26-.08.37-1.24,10.68-21.82-4.26,1.61a57.42,57.42,0,0,1-9.3,2.81Zm0,0" transform="translate(-6.89 -112.66)"/><path d="M145.43,273.67c-2-4.08-4.92-7.46-7.79-10.58l-.92-1a56.16,56.16,0,0,1-6.9-8.47A56,56,0,0,1,125,242.5c-.45-1.3-.92-2.65-1.42-4-1.8-4.78-4.52-10.76-9.7-14.56a23.56,23.56,0,0,0-2.77-1.72,22,22,0,0,0,11.35-25.31,17.51,17.51,0,0,0-9.81-10.87,17.44,17.44,0,0,0,.93-16.34c-3-6.17-7.64-10-12.79-10.59a12.48,12.48,0,0,0,.55-3.47l.38-6.94a12.36,12.36,0,0,0,8.12-1.79,13.72,13.72,0,0,0,5.71-13.84,15.81,15.81,0,0,0-9.65-11.37c-3.55-1.4-7.45-1.45-12.14-.15a7.45,7.45,0,0,0-1.77-3,14.1,14.1,0,0,0-4.34-2.86c-5.52-2.59-10.32-3.52-14.66-2.84a18.56,18.56,0,0,0-6.37,2.28A21.88,21.88,0,0,0,62.74,118a29,29,0,0,0-6.5,9.16,7.68,7.68,0,0,0-.38,1,16.09,16.09,0,0,0-11.29,1.66,11.84,11.84,0,0,0-4.85,5.85,9.49,9.49,0,0,0,.19,7.62c1.24,2.51,3.64,4.48,7.15,5.86a23.81,23.81,0,0,0,3.07,1l1.62,10c-5.19,2.47-9.65,7.81-11.83,12.15A24.14,24.14,0,0,0,38,188.41l0,.22a4,4,0,0,1,.19,2.05,3.66,3.66,0,0,1-1.11.93l-.25.17A18.38,18.38,0,0,0,40.44,224c-5.16,3.8-7.88,9.77-9.67,14.54-.5,1.32-1,2.67-1.42,4a56,56,0,0,1-4.79,11.13,56.78,56.78,0,0,1-6.9,8.47l-.92,1c-2.88,3.12-5.84,6.5-7.79,10.58-2.25,4.7-2.67,9.55-1.19,13.65,1.72,4.77,6.2,8.1,10.8,8.1h.55a1.79,1.79,0,0,0,1.56-1.12,35.19,35.19,0,0,0,11.51,1.92,34.78,34.78,0,0,0,12-2.12c.79-.29,1.53-.61,2.24-.94l.21,0h0l56.94-.88a1.81,1.81,0,0,0,1-.34,26,26,0,0,0,9,4.36,25.43,25.43,0,0,0,6.44.81,26.69,26.69,0,0,0,13.46-3.63v0a1.8,1.8,0,0,0,1.69,1.87h.56c4.6,0,9.08-3.33,10.8-8.1,1.48-4.1,1-8.95-1.19-13.65ZM110.37,171.29a13.69,13.69,0,0,1-2,14.56,1.81,1.81,0,0,0,1,3,13.69,13.69,0,0,1,9.69,9.22,17.28,17.28,0,0,1-1.93,13.83c-2.45,4.07-5,6.21-9.74,8.16a1.52,1.52,0,0,0-.48.31l-1.16-.47-1.22-.49c-2.7-1.1-5.76-2.46-7.9-4.73-1.47-1.54-2.19-4.39-2.89-7.14-.22-.88-.45-1.78-.7-2.65a1.71,1.71,0,0,0-.27-.54c.62-.53,1.22-1.09,1.8-1.67a35.65,35.65,0,0,0,9.24-18.11,8.41,8.41,0,0,0-.15-4.86,9,9,0,0,0-3-3.55l-.54-.45A17,17,0,0,1,94.3,164a12.38,12.38,0,0,0,3.87-1.53,1.77,1.77,0,0,0,.89.2c6.52-.27,10.3,6.53,11.31,8.62Zm-2.56,100a1.45,1.45,0,0,0-.11.29l-.66,0c-1.87,0-3.75.06-5.63.08-9.14.1-18.47.19-27.68.32-8.29.13-16.75.86-25,.42-.06,0-.81,0-.82-.06a1.59,1.59,0,0,0-.19-.62l-8.15-15.5c.28.52,3,.66,3.56.71a16.78,16.78,0,0,0,4.07-.1,15.12,15.12,0,0,0,4.32-1.37c.46-.22.91-.45,1.36-.7,1.63-.91,3.71-2.14,5.63-2.18,1.63,0,3.26.88,5,1.85,2.16,1.21,4.3,2.56,6.87,2.44a22.6,22.6,0,0,0,7.75-2.13c1.84-.78,3.73-1.75,5.76-1.84s3.92.8,5.71,1.62c.72.33,1.46.67,2.23,1a27.46,27.46,0,0,0,15.14.9,60,60,0,0,0,9.59-2.88Zm2.56,5.84c-.89,1.11-2.65,1.21-4.7,1.22l-57.09.35a7.77,7.77,0,0,1-3.59-.51c-.65-.35-1-1.11-.86-1.46S44.79,276,47,276l52-.66,2.43,0,5.66-.08.84,0a5.63,5.63,0,0,1,2.57.22.57.57,0,0,1,.22.43,1.88,1.88,0,0,1-.37,1.31Zm-4.16-24.25a23.76,23.76,0,0,1-13.13-.73c-.67-.26-1.33-.56-2-.89a17.71,17.71,0,0,0-5.76-1.86c-3.12-.28-5.91.9-8.62,2-2.54,1.08-4.94,2.09-7.25,1.69a14.06,14.06,0,0,1-4.2-1.82c-2-1.11-4.19-2.36-6.82-2.32a13.58,13.58,0,0,0-6.27,2.22c-.68.38-1.32.74-2,1a13.42,13.42,0,0,1-12-.5A59.94,59.94,0,0,1,67.46,237c9.19-1.76,17.6-1.54,25,.68A91.82,91.82,0,0,1,104,242.3c1.71.78,3.49,1.58,5.26,2.33l1.13.46c2.61,1.07,5.53,2.27,6.93,4.31a63.46,63.46,0,0,1-11.06,3.52ZM86.29,232.48l-1.06-.17a32.51,32.51,0,0,0-5.58-.18,21.64,21.64,0,0,1,3.59-10.28,1.91,1.91,0,0,0,.15-.28,26.78,26.78,0,0,0,5.22-2.11,67.84,67.84,0,0,0-2.32,13ZM79.18,218.8a28.82,28.82,0,0,1-13.88-1.57,9.27,9.27,0,0,1-3.62-2.08,20.31,20.31,0,0,0,1.89-5.26c.08-.32.15-.65.23-1a26.2,26.2,0,0,0,10.87,2.4c.46,0,.91,0,1.37,0a27.77,27.77,0,0,0,13.73-4.7c.16.59.32,1.2.47,1.8A41.33,41.33,0,0,0,91.51,213a22.88,22.88,0,0,1-12.33,5.79ZM75.44,166a90.05,90.05,0,0,0,15.3-1.32,20.68,20.68,0,0,0,7,13.69c.2.16.4.32.59.49a6.32,6.32,0,0,1,2,2.11,5.44,5.44,0,0,1,0,2.83A32.09,32.09,0,0,1,92,200.1a25,25,0,0,1-16.15,7.57A22.18,22.18,0,0,1,52.7,189a7.55,7.55,0,0,1,.25-4.29A10.29,10.29,0,0,1,55.07,182l.61-.63a29.26,29.26,0,0,0,7.66-16.19,90.65,90.65,0,0,0,12.1.82Zm-20-6-1.51-9.3a26.1,26.1,0,0,0,16.71-4.15,18.09,18.09,0,0,0,12.94,5.71h.07a18.06,18.06,0,0,0,12.84-5.53,11,11,0,0,0,1.78,1,1,1,0,0,0,0,.24l-.41,7.47a7.06,7.06,0,0,1-.56,2.95c-.75,1.32-2.73,1.88-4.57,2.26a86.06,86.06,0,0,1-37.25-.62Zm-7-14.26c-2.65-1-4.41-2.42-5.24-4.1-1.53-3.11.5-7.13,3.28-8.79s7-2,10.95-.64a1.81,1.81,0,0,0,1.91-2.92,2.7,2.7,0,0,1,.22-.65,25.51,25.51,0,0,1,5.68-8,18.18,18.18,0,0,1,3.26-2.39,15.17,15.17,0,0,1,5.14-1.85c3.61-.56,7.72.27,12.57,2.54a10.6,10.6,0,0,1,3.26,2.09,3.2,3.2,0,0,1,1,2.59,1.8,1.8,0,0,0,2.37,2c4.83-1.67,8.59-1.85,11.82-.58a12.12,12.12,0,0,1,7.44,8.69,10,10,0,0,1-4.13,10.14A8.69,8.69,0,0,1,97.5,143a1.86,1.86,0,0,0-1.4-.52,1.82,1.82,0,0,0-1.31.71,14.36,14.36,0,0,1-11.19,5.53h-.06a14.34,14.34,0,0,1-11.2-5.63,1.8,1.8,0,0,0-1.2-.7l-.24,0a1.77,1.77,0,0,0-1.1.38,22.3,22.3,0,0,1-21.42,3.05ZM32.91,210.31a15.31,15.31,0,0,1,6-15.56l.23-.15a6.31,6.31,0,0,0,2.3-2.3,6.43,6.43,0,0,0,.11-4.5l0-.22a20.53,20.53,0,0,1,1.61-13.7c2.27-4.51,6.48-8.82,10.32-10.59q3.13.79,6.32,1.36a25.64,25.64,0,0,1-6.72,14.28c-.19.2-.38.4-.58.59a13.55,13.55,0,0,0-2.83,3.76,11.16,11.16,0,0,0-.5,6.32,26.07,26.07,0,0,0,9.28,16c.67.54,1.38,1,2.1,1.51-.17.69-.32,1.34-.47,2-.55,2.4-1,4.13-2.3,5.55-2.15,2.26-5.2,3.63-7.9,4.73l-1.22.49c-1.3.52-2.63,1.06-3.93,1.67a15.31,15.31,0,0,1-11.8-11.21Zm-15.7,81.36a8.77,8.77,0,0,1-6.06-5.57C10,283,10.4,279,12.2,275.22s4.5-6.77,7.18-9.68l.92-1a60.26,60.26,0,0,0,7.33-9,60.11,60.11,0,0,0,5.12-11.84c.45-1.29.91-2.61,1.39-3.89,1.62-4.32,4-9.69,8.46-12.92A32.93,32.93,0,0,1,50,223.19l1.23-.49A27.89,27.89,0,0,0,59.45,218a13.05,13.05,0,0,0,4.62,2.6,32.61,32.61,0,0,0,14.63,1.88A25.28,25.28,0,0,0,76,232.28a65.44,65.44,0,0,0-9.24,1.2,63.37,63.37,0,0,0-31.72,16.28,1.73,1.73,0,0,0-.39.55,1.77,1.77,0,0,0-.55.31,1.8,1.8,0,0,0-.45,2.23l10.45,19.88a7.62,7.62,0,0,0-.88.3,1.7,1.7,0,0,0-.67-.63c-.48-.26-1.44-.82-2.37-1.36l-.82-.47a2,2,0,0,0-.29-.61,10.8,10.8,0,0,0-15.37-2A1.8,1.8,0,1,0,26,270.78a7.37,7.37,0,0,1,5.4-1.5,7,7,0,0,1,2.47.81,24.14,24.14,0,0,0-11.28,7.56,23.62,23.62,0,0,0-5.34,14Zm31.84-4.38A19.34,19.34,0,0,1,43,290.71a31.55,31.55,0,0,1-22.06-.18A19.89,19.89,0,0,1,25.33,280a20.52,20.52,0,0,1,11.2-6.86l1.87,1.07c.93.54,1.81,1,2.36,1.35-.89,2.32.56,4.83,2.51,5.89a9.87,9.87,0,0,0,4.84.94h.5l3.75,0a10.85,10.85,0,0,1-3.31,5Zm2.92,2.2a13.94,13.94,0,0,0,4-6.83,1.47,1.47,0,0,0,0-.36l40.76-.25a1.76,1.76,0,0,0,.19,1,26,26,0,0,0,4.05,5.72Zm80.74.3A22.56,22.56,0,0,1,100.56,282l5.14,0c2.17,0,5.45,0,7.48-2.57a5.53,5.53,0,0,0,1.12-4.09c0-.09,0-.19,0-.29l3.24-1.89c.06,0,.11-.08.16-.11a20.54,20.54,0,0,1,11.4,6.9,19.74,19.74,0,0,1,4.28,9.59,1.93,1.93,0,0,0-.62.25Zm10.52-3.69a8.76,8.76,0,0,1-6.07,5.57,23.55,23.55,0,0,0-5.33-14,24.19,24.19,0,0,0-11.28-7.56,7.25,7.25,0,0,1,2.47-.81,7.37,7.37,0,0,1,5.4,1.5,1.8,1.8,0,0,0,2.24-2.82,10.8,10.8,0,0,0-15.37,2l-.11.18a1.64,1.64,0,0,0-.4.43l-2.73,1.59c-.18-.08-.35-.16-.53-.22l10.26-21a1.8,1.8,0,0,0-.3-2,1.85,1.85,0,0,0-.56-.4.14.14,0,0,0,0-.06c-1.77-3.7-5.89-5.39-9.2-6.74l-1.09-.45c-1.73-.73-3.48-1.52-5.17-2.29a94.66,94.66,0,0,0-11.94-4.78c-1.19-.36-2.42-.7-3.66-1,.56-5.77,1.43-12,3.84-16.82q.33.38.66.78c2.26,2.71,5.59,4.19,8.82,5.51l1.23.49a33.14,33.14,0,0,1,7.39,3.69c4.41,3.23,6.84,8.6,8.46,12.92.48,1.28.94,2.6,1.39,3.89a59.28,59.28,0,0,0,5.12,11.84,59.65,59.65,0,0,0,7.33,9l.91,1c2.69,2.91,5.45,6,7.19,9.68s2.18,7.73,1,10.88Zm0,0" transform="translate(-6.89 -112.66)"/></g><g id="Camada_2" data-name="Camada 2"><text class="cls-12" transform="translate(125.67 132.01)">Doce Menina</text></g></svg>